<svg width="404" height="33" fill="none" xmlns="http://www.w3.org/2000/svg"><path d="M55.578 23.667h-3.29v-1.112h3.217c1.167 0 2.142-.228 2.926-.684a4.338 4.338 0 001.777-1.968c.395-.857.593-1.878.593-3.063 0-1.166-.195-2.17-.584-3.008-.382-.844-.95-1.491-1.704-1.941-.747-.456-1.671-.684-2.77-.684h-3.5v-1.12h3.572c1.294 0 2.403.27 3.327.81.924.541 1.628 1.316 2.114 2.325.493 1.008.739 2.215.739 3.618 0 1.428-.252 2.652-.757 3.673a5.336 5.336 0 01-2.187 2.343c-.954.54-2.112.811-3.473.811zm-2.743-13.58v13.58h-1.24v-13.58h1.24zm16.391 13.799c-.948 0-1.77-.222-2.47-.666a4.42 4.42 0 01-1.613-1.859c-.377-.79-.565-1.698-.565-2.725 0-1.027.185-1.939.556-2.735.377-.796.9-1.421 1.568-1.877.668-.456 1.443-.684 2.324-.684.547 0 1.078.104 1.595.31.516.2.981.508 1.394.92.414.414.739.94.976 1.578.237.631.355 1.385.355 2.26v.528H65.39v-1.038h7.32l-.539.4c0-.74-.127-1.403-.383-1.986-.249-.584-.607-1.046-1.075-1.386-.468-.34-1.03-.51-1.686-.51-.65 0-1.221.173-1.714.52-.492.34-.875.795-1.148 1.366a4.293 4.293 0 00-.401 1.86v.61c0 .815.14 1.526.42 2.133.285.602.686 1.07 1.202 1.404.523.334 1.136.501 1.841.501.48 0 .903-.076 1.267-.228.365-.152.672-.355.92-.61.25-.262.438-.544.566-.848l1.121.374c-.158.425-.413.82-.766 1.185-.346.358-.784.65-1.312.875-.523.218-1.121.328-1.796.328zm13.858-8.158l-1.075.292a2.627 2.627 0 00-.793-1.158c-.365-.322-.89-.483-1.577-.483-.687 0-1.252.167-1.695.502-.444.328-.666.75-.666 1.267 0 .43.149.786.447 1.066.304.273.772.489 1.403.647l1.54.374c.851.212 1.49.544 1.915.993.431.444.647 1.006.647 1.686 0 .572-.161 1.082-.483 1.532-.316.45-.757.802-1.322 1.057-.565.255-1.221.383-1.968.383-.997 0-1.817-.225-2.461-.675-.644-.455-1.058-1.106-1.24-1.95l1.13-.274c.14.602.426 1.058.857 1.368.431.31.997.464 1.695.464.778 0 1.404-.176 1.878-.528.474-.353.71-.79.71-1.313 0-.838-.555-1.394-1.667-1.668l-1.659-.4c-.887-.213-1.543-.548-1.969-1.003-.425-.456-.638-1.024-.638-1.705 0-.559.152-1.054.456-1.486a3.1 3.1 0 011.267-1.011c.535-.243 1.142-.365 1.823-.365.936 0 1.683.216 2.242.647.559.426.96 1.006 1.203 1.741zm3.084 7.939v-10.19h1.176v10.19H86.17zm.593-11.931a.892.892 0 01-.629-.246.833.833 0 01-.255-.61c0-.232.085-.43.255-.593a.892.892 0 01.629-.246.86.86 0 01.62.246c.17.164.255.361.255.592a.86.86 0 01-.875.857zm7.942 15.96c-1.039 0-1.886-.195-2.543-.584-.656-.389-1.133-.875-1.43-1.458l.966-.638c.14.261.334.513.583.757.249.249.571.452.966.61.395.164.881.246 1.458.246.906 0 1.635-.225 2.188-.674.559-.45.838-1.149.838-2.097v-2.297h-.118a3.91 3.91 0 01-.583.93c-.256.304-.59.56-1.003.766-.413.2-.927.3-1.54.3-.815 0-1.538-.2-2.17-.6-.626-.402-1.12-.976-1.485-1.724-.359-.753-.538-1.646-.538-2.68 0-1.032.176-1.938.529-2.715.352-.784.844-1.395 1.476-1.832.632-.444 1.367-.666 2.206-.666.626 0 1.145.113 1.558.337.414.22.745.49.994.812.25.322.444.635.583.938h.128v-1.95h1.13V23.93c0 .863-.182 1.571-.547 2.124a3.201 3.201 0 01-1.486 1.24c-.631.267-1.352.4-2.16.4zm-.073-5.214c.979 0 1.741-.352 2.288-1.057.547-.705.82-1.671.82-2.899 0-.796-.121-1.5-.364-2.114-.237-.62-.59-1.106-1.057-1.458-.462-.359-1.024-.538-1.686-.538-.687 0-1.264.185-1.732.556-.468.364-.824.857-1.067 1.476-.237.62-.355 1.313-.355 2.078 0 .778.121 1.465.364 2.06.244.596.599 1.06 1.067 1.395.474.334 1.048.501 1.722.501zm8.927-5.177v6.362h-1.175v-10.19h1.139v1.613h.118a2.841 2.841 0 011.112-1.267c.505-.316 1.13-.474 1.878-.474.687 0 1.288.143 1.805.429.522.285.929.704 1.221 1.258.292.552.437 1.233.437 2.041v6.59h-1.175V17.15c0-.832-.234-1.495-.702-1.987-.468-.492-1.094-.738-1.878-.738a2.86 2.86 0 00-1.431.355 2.52 2.52 0 00-.993.994c-.237.425-.356.935-.356 1.531zm19.23 6.544c-.832 0-1.561-.16-2.187-.483a3.64 3.64 0 01-1.45-1.321 3.592 3.592 0 01-.519-1.915c0-.51.106-.969.319-1.376.219-.413.526-.805.921-1.176.401-.37.878-.762 1.431-1.175l1.977-1.468c.462-.34.815-.671 1.058-.993.249-.322.373-.72.373-1.194 0-.456-.173-.863-.519-1.222-.34-.364-.784-.546-1.331-.546-.377 0-.717.094-1.021.282a2.134 2.134 0 00-.711.738 1.9 1.9 0 00-.255.957c0 .322.082.641.246.957.164.31.38.635.647.976.274.334.578.708.912 1.12l6.198 7.657h-1.44l-5.405-6.635-1.213-1.486a7.383 7.383 0 01-.838-1.267 2.964 2.964 0 01-.301-1.33c0-.59.134-1.11.401-1.56a2.837 2.837 0 011.112-1.057c.474-.26 1.018-.392 1.632-.392.632 0 1.178.128 1.64.383.462.255.821.596 1.076 1.021.255.425.383.896.383 1.413 0 .607-.158 1.148-.474 1.622-.316.468-.775.93-1.377 1.386l-2.479 1.84c-.674.505-1.136.976-1.385 1.414-.249.437-.374.808-.374 1.112 0 .48.125.923.374 1.33.249.401.592.726 1.03.976.443.243.951.364 1.522.364.559 0 1.088-.112 1.586-.337a4.25 4.25 0 001.349-.957c.395-.42.711-.92.948-1.504a5.92 5.92 0 00.428-1.942l1.148.019c-.024.723-.124 1.34-.3 1.85-.176.504-.38.92-.611 1.249a7.45 7.45 0 01-.602.784 2.495 2.495 0 00-.118.164 3.41 3.41 0 00-.109.155c-.414.48-.948.862-1.605 1.148a5.27 5.27 0 01-2.087.42zm18.136-.182h-3.29v-1.112h3.217c1.167 0 2.142-.228 2.926-.684a4.34 4.34 0 001.778-1.968c.395-.857.592-1.878.592-3.063 0-1.166-.194-2.17-.583-3.008-.383-.844-.951-1.491-1.705-1.941-.747-.456-1.671-.684-2.771-.684h-3.5v-1.12h3.573c1.295 0 2.404.27 3.327.81.924.541 1.629 1.316 2.115 2.325.492 1.008.738 2.215.738 3.618 0 1.428-.252 2.652-.756 3.673a5.341 5.341 0 01-2.188 2.343c-.954.54-2.111.811-3.473.811zm-2.743-13.58v13.58h-1.24v-13.58h1.24zm16.392 13.799c-.948 0-1.772-.222-2.47-.666a4.421 4.421 0 01-1.614-1.859c-.377-.79-.565-1.698-.565-2.725 0-1.027.185-1.939.556-2.735.377-.796.899-1.421 1.568-1.877.668-.456 1.443-.684 2.324-.684.547 0 1.079.104 1.595.31.517.2.981.508 1.395.92.413.414.738.94.975 1.578.237.631.355 1.385.355 2.26v.528h-7.957v-1.038h7.319l-.537.4c0-.74-.128-1.403-.383-1.986-.249-.584-.608-1.046-1.076-1.386-.468-.34-1.03-.51-1.686-.51-.65 0-1.221.173-1.714.52-.492.34-.875.795-1.148 1.366a4.297 4.297 0 00-.401 1.86v.61c0 .815.14 1.526.419 2.133.286.602.687 1.07 1.203 1.404.523.334 1.137.501 1.842.501.48 0 .902-.076 1.266-.228a2.74 2.74 0 00.921-.61c.249-.262.438-.544.565-.848l1.121.374c-.158.425-.413.82-.765 1.185-.347.358-.784.65-1.313.875-.522.218-1.121.328-1.795.328zm14.532-10.41l-3.71 10.191h-1.267l-3.718-10.19h1.285l3.017 8.64h.091l3.026-8.64h1.276zm6.42 10.41c-.948 0-1.771-.222-2.47-.666-.699-.45-1.236-1.07-1.613-1.859-.377-.79-.565-1.698-.565-2.725 0-1.027.185-1.939.556-2.735.376-.796.899-1.421 1.567-1.877.669-.456 1.444-.684 2.325-.684.546 0 1.078.104 1.595.31.516.2.981.508 1.394.92.413.414.738.94.975 1.578.237.631.356 1.385.356 2.26v.528h-7.957v-1.038h7.319l-.538.4c0-.74-.127-1.403-.383-1.986-.249-.584-.607-1.046-1.075-1.386-.468-.34-1.03-.51-1.686-.51-.651 0-1.222.173-1.714.52-.492.34-.875.795-1.148 1.366a4.283 4.283 0 00-.401 1.86v.61c0 .815.139 1.526.419 2.133.285.602.687 1.07 1.203 1.404.523.334 1.136.501 1.841.501.48 0 .902-.076 1.267-.228a2.74 2.74 0 00.921-.61c.249-.262.437-.544.565-.848l1.121.374c-.158.425-.413.82-.766 1.185-.346.358-.784.65-1.312.875-.523.218-1.121.328-1.796.328zm8.198-13.8v13.581h-1.176v-13.58h1.176zm7.432 13.8c-.881 0-1.659-.222-2.334-.666-.674-.45-1.203-1.07-1.585-1.859-.377-.796-.566-1.707-.566-2.734 0-1.046.189-1.963.566-2.753.382-.796.911-1.416 1.585-1.86.675-.449 1.453-.674 2.334-.674s1.656.225 2.324.675c.675.443 1.203 1.063 1.586 1.859.383.79.574 1.707.574 2.753 0 1.027-.191 1.938-.574 2.734-.377.79-.902 1.41-1.577 1.86-.674.443-1.452.665-2.333.665zm0-1.076c.711 0 1.309-.188 1.795-.565.493-.383.866-.893 1.121-1.531a5.554 5.554 0 00.383-2.087c0-.766-.127-1.468-.383-2.106-.255-.638-.628-1.148-1.121-1.531-.492-.383-1.09-.574-1.795-.574-.705 0-1.304.194-1.796.583-.486.383-.86.893-1.121 1.531a5.554 5.554 0 00-.383 2.097c0 .753.128 1.449.383 2.087.255.638.629 1.148 1.121 1.531.492.377 1.091.565 1.796.565zm7.423 4.667v-14h1.139v1.95h.137c.14-.303.334-.616.583-.938.249-.322.58-.593.994-.812.413-.224.929-.337 1.549-.337.839 0 1.571.222 2.197.665.632.438 1.124 1.052 1.476 1.842.353.79.529 1.707.529 2.752 0 1.052-.176 1.975-.529 2.771-.346.796-.835 1.416-1.467 1.86-.626.437-1.358.656-2.197.656-.614 0-1.13-.11-1.549-.328a3.162 3.162 0 01-1.003-.83 5.01 5.01 0 01-.583-.957h-.1v5.706h-1.176zm4.284-4.667c.668 0 1.236-.188 1.704-.565.468-.377.823-.884 1.066-1.522.243-.638.365-1.349.365-2.133s-.122-1.488-.365-2.114c-.243-.632-.595-1.134-1.057-1.504-.462-.371-1.033-.556-1.713-.556-.669 0-1.234.179-1.696.537-.462.353-.814.842-1.057 1.468s-.365 1.349-.365 2.17c0 .813.122 1.54.365 2.178.243.632.595 1.13 1.057 1.494.468.365 1.033.547 1.696.547zm7.258.857v-10.19h1.14v1.577h.118a2.501 2.501 0 011.012-1.249c.48-.304 1.054-.456 1.723-.456.698 0 1.273.167 1.722.502.45.328.787.777 1.012 1.349h.091a2.871 2.871 0 011.121-1.34c.523-.34 1.152-.51 1.887-.51.948 0 1.698.297 2.251.893.553.595.83 1.46.83 2.597v6.827h-1.185V16.84c0-.802-.207-1.403-.62-1.804-.407-.408-.948-.611-1.622-.611-.778 0-1.377.243-1.796.729-.419.48-.629 1.085-.629 1.814v6.699h-1.212v-6.936c0-.687-.192-1.243-.574-1.668-.383-.426-.924-.638-1.623-.638-.468 0-.89.118-1.267.355-.37.231-.665.55-.884.957-.212.407-.319.878-.319 1.413v6.517h-1.176zm20.494.219c-.948 0-1.772-.222-2.47-.666a4.421 4.421 0 01-1.614-1.859c-.376-.79-.565-1.698-.565-2.725 0-1.027.186-1.939.556-2.735.377-.796.899-1.421 1.568-1.877.668-.456 1.443-.684 2.324-.684.547 0 1.079.104 1.595.31.517.2.982.508 1.395.92.413.414.738.94.975 1.578.237.631.355 1.385.355 2.26v.528h-7.957v-1.038h7.319l-.537.4c0-.74-.128-1.403-.383-1.986-.249-.584-.608-1.046-1.076-1.386-.468-.34-1.03-.51-1.686-.51-.65 0-1.221.173-1.713.52a3.42 3.42 0 00-1.149 1.366 4.297 4.297 0 00-.401 1.86v.61c0 .815.14 1.526.419 2.133.286.602.687 1.07 1.203 1.404.523.334 1.137.501 1.842.501.48 0 .902-.076 1.267-.228.364-.152.671-.355.92-.61.249-.262.438-.544.565-.848l1.121.374c-.158.425-.413.82-.765 1.185-.347.358-.784.65-1.313.875-.522.218-1.121.328-1.795.328zm8.197-6.581v6.362h-1.176v-10.19h1.14v1.613h.118a2.841 2.841 0 011.112-1.267c.505-.316 1.13-.474 1.878-.474.687 0 1.288.143 1.805.429.522.285.929.704 1.221 1.258.292.552.437 1.233.437 2.041v6.59h-1.175V17.15c0-.832-.234-1.495-.702-1.987-.468-.492-1.094-.738-1.878-.738-.535 0-1.011.118-1.431.355a2.52 2.52 0 00-.993.994c-.237.425-.356.935-.356 1.531zm14.004-3.828v1.03h-4.858v-1.03h4.858zm-3.336-2.425h1.176v9.954c0 .552.136.969.41 1.248.273.274.653.41 1.139.41.11 0 .219-.006.328-.018.116-.018.237-.042.365-.073l.255 1.067a2.43 2.43 0 01-.483.127c-.182.03-.371.046-.565.046-.753 0-1.379-.231-1.878-.693-.498-.468-.747-1.078-.747-1.832V11.052zm16.386 12.834c-.614 0-1.13-.11-1.549-.328a3.151 3.151 0 01-1.003-.83 4.96 4.96 0 01-.583-.957h-.137v1.896h-1.139v-13.58h1.175v5.34h.101c.139-.303.334-.616.583-.938.249-.322.58-.593.994-.812.413-.224.929-.337 1.549-.337.839 0 1.571.222 2.197.665.632.438 1.124 1.052 1.476 1.842.353.79.529 1.707.529 2.752 0 1.052-.176 1.975-.529 2.771-.346.796-.835 1.416-1.467 1.86-.626.437-1.358.656-2.197.656zm-.127-1.076c.668 0 1.236-.188 1.704-.565.468-.377.823-.884 1.066-1.522.243-.638.365-1.349.365-2.133s-.122-1.488-.365-2.114c-.243-.632-.595-1.134-1.057-1.504-.462-.371-1.033-.556-1.713-.556-.669 0-1.234.179-1.696.537-.462.353-.814.842-1.057 1.468s-.365 1.349-.365 2.17c0 .813.122 1.54.365 2.178.243.632.595 1.13 1.057 1.494.468.365 1.033.547 1.696.547zm7.714 4.667a2.868 2.868 0 01-.656-.055 2.034 2.034 0 01-.483-.155l.319-1.03.137.037c.559.164 1.033.143 1.421-.064.395-.2.727-.668.994-1.404l.374-1.039-3.746-10.29h1.285l3.017 8.64h.091l3.026-8.64h1.276l-4.302 11.794c-.183.492-.407.902-.675 1.23a2.475 2.475 0 01-.911.73 2.693 2.693 0 01-1.167.246zm19.485-17.39v13.58h-1.604V11.818h-.091l-3.3 2.206v-1.677l3.391-2.26h1.604zm8.818 13.762c-1.155 0-2.185-.282-3.09-.847-.906-.566-1.619-1.368-2.142-2.407-.517-1.045-.775-2.281-.775-3.71 0-1.433.258-2.673.775-3.718.523-1.045 1.236-1.85 2.142-2.415.905-.566 1.935-.848 3.09-.848 1.16 0 2.19.283 3.09.848.899.565 1.607 1.37 2.123 2.415.517 1.045.775 2.285.775 3.719 0 1.428-.258 2.664-.775 3.71-.516 1.038-1.224 1.84-2.123 2.406-.9.565-1.93.847-3.09.847zm0-1.531a4.12 4.12 0 002.224-.62c.668-.419 1.197-1.033 1.586-1.84.395-.81.592-1.8.592-2.972 0-1.18-.197-2.173-.592-2.98-.389-.815-.918-1.429-1.586-1.842a4.074 4.074 0 00-2.224-.629c-.821 0-1.565.21-2.233.63-.669.412-1.2 1.026-1.595 1.84-.395.808-.593 1.802-.593 2.98 0 1.173.198 2.164.593 2.972.395.808.926 1.422 1.595 1.841a4.16 4.16 0 002.233.62zm12.882 1.531c-.911 0-1.713-.16-2.406-.483-.693-.328-1.234-.778-1.622-1.349-.389-.57-.584-1.224-.584-1.96 0-.57.113-1.1.338-1.585.23-.492.543-.903.938-1.23a2.936 2.936 0 011.349-.63v-.073a2.655 2.655 0 01-1.558-1.103 3.348 3.348 0 01-.575-1.923c0-.692.177-1.31.529-1.85a3.626 3.626 0 011.458-1.285c.626-.316 1.337-.474 2.133-.474.784 0 1.486.158 2.106.474.62.31 1.106.738 1.458 1.285.359.54.538 1.158.538 1.85 0 .717-.195 1.358-.584 1.924-.388.565-.899.932-1.531 1.102v.073c.486.091.927.301 1.322.63.401.327.717.738.948 1.23a3.57 3.57 0 01.355 1.586c0 .735-.197 1.388-.592 1.96-.389.57-.93 1.02-1.623 1.348-.692.322-1.491.483-2.397.483zm0-1.458c.614 0 1.143-.097 1.586-.292.45-.2.796-.48 1.039-.838.243-.365.365-.79.365-1.276 0-.51-.131-.963-.392-1.358a2.692 2.692 0 00-1.067-.93c-.449-.225-.96-.337-1.531-.337-.583 0-1.103.112-1.558.337a2.7 2.7 0 00-1.067.93 2.449 2.449 0 00-.383 1.358c0 .486.122.911.365 1.276.243.358.589.638 1.039.838.45.195.984.292 1.604.292zm0-6.435a2.78 2.78 0 001.295-.292c.376-.194.674-.464.893-.81.218-.353.328-.763.328-1.231 0-.462-.106-.863-.319-1.203a2.16 2.16 0 00-.884-.793c-.377-.189-.814-.283-1.313-.283-.51 0-.957.094-1.34.283a2.16 2.16 0 00-.884.793c-.206.34-.31.74-.31 1.203 0 .468.107.878.319 1.23.219.347.517.617.894.811.382.195.823.292 1.321.292zm12.901 7.893c-1.155 0-2.184-.282-3.09-.847-.905-.566-1.619-1.368-2.142-2.407-.516-1.045-.775-2.281-.775-3.71 0-1.433.259-2.673.775-3.718.523-1.045 1.237-1.85 2.142-2.415.906-.566 1.935-.848 3.09-.848 1.161 0 2.191.283 3.09.848s1.607 1.37 2.124 2.415c.516 1.045.774 2.285.774 3.719 0 1.428-.258 2.664-.774 3.71-.517 1.038-1.225 1.84-2.124 2.406-.899.565-1.929.847-3.09.847zm0-1.531c.82 0 1.562-.207 2.224-.62.668-.419 1.197-1.033 1.586-1.84.395-.81.592-1.8.592-2.972 0-1.18-.197-2.173-.592-2.98-.389-.815-.918-1.429-1.586-1.842a4.072 4.072 0 00-2.224-.629c-.82 0-1.565.21-2.233.63-.668.412-1.2 1.026-1.595 1.84-.395.808-.593 1.802-.593 2.98 0 1.173.198 2.164.593 2.972.395.808.927 1.422 1.595 1.841.668.413 1.413.62 2.233.62zm8.954 1.458a1.17 1.17 0 01-.847-.346 1.173 1.173 0 01-.347-.848c0-.328.116-.607.347-.838.237-.237.519-.356.847-.356.328 0 .608.119.839.356.237.23.355.51.355.838 0 .328-.118.611-.355.848-.231.23-.511.346-.839.346zm7.141.128a4.164 4.164 0 01-1.76-.365 3.014 3.014 0 01-1.257-1.075c-.31-.468-.465-1.033-.465-1.695 0-.584.115-1.055.346-1.413.231-.365.538-.65.921-.857.389-.213.814-.37 1.276-.474a16.22 16.22 0 011.412-.246c.62-.079 1.122-.14 1.504-.182.389-.043.672-.116.848-.22.182-.102.273-.279.273-.528v-.054c0-.65-.179-1.155-.537-1.513-.353-.365-.89-.547-1.614-.547-.741 0-1.324.164-1.75.492-.425.322-.723.668-.893 1.039l-1.495-.529c.268-.62.623-1.103 1.067-1.449.449-.346.936-.59 1.458-.73a6.086 6.086 0 011.559-.209c.328 0 .705.04 1.13.119.425.073.839.23 1.24.474.407.237.741.598 1.002 1.084.268.48.401 1.125.401 1.933v6.708h-1.568v-1.385h-.072c-.104.218-.28.455-.529.71-.249.25-.58.465-.994.648-.407.176-.908.264-1.503.264zm.237-1.404c.619 0 1.142-.121 1.567-.364a2.51 2.51 0 00.966-.94c.219-.388.328-.792.328-1.211v-1.44c-.066.079-.212.151-.437.218a7.28 7.28 0 01-.766.164c-.285.049-.565.092-.838.128l-.656.073a5.894 5.894 0 00-1.14.264 2.024 2.024 0 00-.857.52c-.212.23-.319.547-.319.948 0 .54.201.95.602 1.23.407.274.924.41 1.55.41zm11.469 5.196c-1.136 0-2.035-.207-2.698-.62-.656-.413-1.142-.887-1.458-1.422l1.24-.875c.139.188.319.401.537.638.219.243.517.453.894.629.376.176.872.264 1.485.264.821 0 1.498-.197 2.033-.592.541-.395.811-1.018.811-1.869v-2.06h-.146c-.109.183-.27.41-.483.684-.206.267-.507.507-.902.72-.389.207-.918.31-1.586.31-.82 0-1.556-.195-2.206-.583-.65-.39-1.167-.954-1.549-1.696-.377-.741-.565-1.64-.565-2.698 0-1.045.182-1.953.546-2.725.371-.778.885-1.38 1.541-1.805.656-.431 1.413-.647 2.269-.647.663 0 1.188.11 1.577.328.395.22.696.468.902.748.213.273.377.498.493.674h.164v-1.622h1.495v10.482c0 .875-.198 1.586-.593 2.133a3.343 3.343 0 01-1.586 1.212c-.662.261-1.4.392-2.215.392zm-.054-5.597c.941 0 1.661-.319 2.16-.957.504-.638.756-1.522.756-2.652 0-.735-.109-1.382-.328-1.941-.219-.56-.547-.997-.984-1.313-.432-.322-.966-.483-1.604-.483-.663 0-1.216.17-1.659.51-.438.335-.766.784-.985 1.35a5.178 5.178 0 00-.328 1.877c0 .705.11 1.33.328 1.878.225.54.559.966 1.003 1.276.444.303.99.455 1.641.455zm11.652 1.787c-.979 0-1.826-.219-2.543-.656a4.33 4.33 0 01-1.641-1.832c-.383-.79-.574-1.705-.574-2.744 0-1.045.188-1.966.565-2.762.377-.796.905-1.419 1.586-1.868.687-.45 1.489-.675 2.406-.675.529 0 1.054.088 1.577.265a3.9 3.9 0 011.422.856c.431.395.775.918 1.03 1.568s.383 1.45.383 2.397v.675h-7.857v-1.35h7.009l-.72.511c0-.68-.106-1.285-.319-1.814a2.76 2.76 0 00-.957-1.248c-.419-.304-.942-.456-1.568-.456-.626 0-1.163.155-1.613.465a2.993 2.993 0 00-1.021 1.194 3.607 3.607 0 00-.355 1.586v.893c0 .772.133 1.425.401 1.96.267.534.641.941 1.121 1.22.48.274 1.036.411 1.668.411.407 0 .777-.058 1.112-.173a2.4 2.4 0 00.866-.538c.243-.243.428-.54.556-.893l1.513.437c-.158.51-.426.96-.803 1.35-.37.382-.832.683-1.385.902-.553.212-1.173.319-1.859.319zm8.17-6.344v6.125h-1.55v-10.19h1.495v1.604h.146a2.903 2.903 0 011.085-1.258c.486-.316 1.115-.474 1.886-.474.687 0 1.289.14 1.805.42.517.28.918.704 1.203 1.276.292.565.438 1.282.438 2.15v6.472h-1.55v-6.362c0-.796-.209-1.419-.629-1.868-.419-.456-.99-.684-1.713-.684-.498 0-.945.11-1.34.328a2.389 2.389 0 00-.939.948c-.225.413-.337.918-.337 1.513zm13.566 6.344c-.948 0-1.768-.225-2.461-.675-.686-.455-1.218-1.078-1.595-1.868-.371-.79-.556-1.692-.556-2.707 0-1.04.192-1.954.574-2.744.383-.796.918-1.419 1.605-1.868.692-.45 1.497-.675 2.415-.675.717 0 1.361.134 1.932.401a3.613 3.613 0 011.413 1.112c.371.48.598 1.04.684 1.677h-1.568a2.44 2.44 0 00-.429-.875 2.205 2.205 0 00-.82-.656c-.334-.17-.732-.255-1.194-.255-.608 0-1.139.158-1.595.474-.456.316-.811.762-1.066 1.34-.256.57-.383 1.242-.383 2.014 0 .784.124 1.47.374 2.06.249.583.601 1.036 1.057 1.358.462.322.999.483 1.613.483s1.139-.158 1.577-.474a2.27 2.27 0 00.866-1.312h1.568a3.539 3.539 0 01-.657 1.622c-.346.48-.805.863-1.376 1.148-.565.28-1.224.42-1.978.42zm7.058 3.59a3.194 3.194 0 01-.711-.054 1.97 1.97 0 01-.437-.127l.401-1.368.155.037c.523.121.96.094 1.312-.082.359-.17.672-.623.939-1.358l.292-.802-3.755-10.245h1.695l2.807 8.13h.11l2.807-8.13h1.695l-4.32 11.667c-.194.528-.434.966-.72 1.312a2.661 2.661 0 01-.994.766c-.376.17-.802.255-1.276.255z" fill="#fff"/><g clip-path="url(#clip0_4738_140)"><path d="M13.685 3.332c-7.368 0-13.35 5.98-13.35 13.349 0 7.368 5.982 13.348 13.35 13.348h.061c7.307-.03 13.257-6.011 13.257-13.348 0-7.368-5.981-13.349-13.318-13.349zm.462 13.811c3.083.216 5.55 2.867 5.55 5.95s-2.467 5.734-5.55 5.95v-11.9zm0-.956V4.35c3.052.216 5.518 2.837 5.518 5.92 0 3.082-2.466 5.703-5.518 5.918zm6.474 6.937c0-2.836-1.788-5.426-4.44-6.443 2.621-1.018 4.41-3.576 4.41-6.413a6.763 6.763 0 00-2.313-5.117c4.655 1.88 7.8 6.474 7.8 11.53 0 4.963-3.114 9.557-7.677 11.468 1.419-1.326 2.22-3.145 2.22-5.025zM13.222 4.349v11.838a5.944 5.944 0 01-5.456-5.919 5.92 5.92 0 015.456-5.919zm-6.381 5.92c0 2.805 1.788 5.394 4.408 6.412-2.651 1.017-4.44 3.607-4.44 6.443a6.91 6.91 0 002.251 5.087c-4.624-1.912-7.8-6.505-7.8-11.53 0-5.118 3.207-9.742 7.924-11.592a6.873 6.873 0 00-2.343 5.18zm6.381 6.905v11.9c-3.083-.278-5.487-2.836-5.487-5.95a5.977 5.977 0 015.487-5.95z" fill="#fff"/></g><defs><clipPath id="clip0_4738_140"><path fill="#fff" transform="translate(.334 3.332)" d="M0 0h26.667v26.667H0z"/></clipPath></defs></svg>