<svg width="199" height="50" fill="none" xmlns="http://www.w3.org/2000/svg"><path d="M18.762 49.024C6.666 49.024.906 41.792.906 32c0-9.792 6.336-16.96 17.856-16.96 8.832 0 13.056 4.032 13.76 8.704L31.434 24c-.64-4.16-4.032-7.872-12.672-7.872C12.618 16.128 7.37 21.376 7.37 32c0 9.024 3.84 15.936 11.392 15.936 5.824 0 11.072-1.728 15.168-5.312l.512.64c-1.088.896-5.76 5.76-15.68 5.76zM39.241 16h6.08v18.688c1.344-7.936 4.8-19.712 14.528-19.712 4.544 0 6.656 2.944 6.656 5.632 0 3.584-2.88 6.016-6.08 6.976l-.32-1.024c2.752-.896 5.312-2.688 5.312-5.952 0-2.176-1.728-4.48-5.504-4.48-12.736 0-14.592 22.592-14.592 31.872h-6.08V16zm42.108 32.96c-5.184 0-13.568-.832-13.568-12.608 0-4.864 2.624-9.152 8.32-10.688l-6.08-3.328c2.496-4.288 6.08-7.232 17.28-7.232 8.128 0 14.656 1.728 14.656 12.8V48h-6.016V31.936c-1.408 8.576-4.096 17.024-14.592 17.024zm-.064-22.912c-3.84 0-7.232 2.944-7.232 10.944 0 8.384 3.392 11.008 7.232 11.008 5.696 0 10.048-2.304 12.48-11.072.96-3.52 1.728-7.296 1.984-10.88H81.285zm-4.096-.704c.576-.192 2.432-.384 4.096-.384h14.592c0-6.464-.512-9.024-8.576-9.024-6.976 0-9.536 4.224-10.112 9.408zM108.366 48V16h6.08v18.688c1.344-7.936 4.8-19.712 14.528-19.712 11.136 0 13.12 8.96 13.12 18.304V48h-6.144V25.344c0-6.976-3.072-9.216-6.912-9.216-12.8 0-14.592 22.528-14.592 31.872h-6.08zm46.525 0h-6.08V16h6.08v32zm-2.88-39.616a4.152 4.152 0 01-4.16-4.16 4.152 4.152 0 014.16-4.16 4.152 4.152 0 014.16 4.16 4.152 4.152 0 01-4.16 4.16zM160.969 32c0-11.2 8.256-17.024 18.688-17.024 10.496 0 18.688 5.824 18.688 17.024 0 11.2-8.192 17.024-18.688 17.024-10.432 0-18.688-5.824-18.688-17.024zm18.688-16c-7.872 0-12.416 4.928-12.416 16 0 10.944 3.776 16 12.416 16 8.512 0 12.416-5.056 12.416-16 0-11.072-4.416-16-12.416-16z" fill="#C19B85"/></svg>