<svg width="286" height="290" fill="none" xmlns="http://www.w3.org/2000/svg"><path d="M41.392 85.925v-.03c1.163-22.289 4.2-25.1 5.485-46.573.665-10.986-3.793-9.414-6.437-4.88-1.723 2.931-3.385 7.933-4.02 11.257-6.014 31.628-13.252 48.538-17.559 80.467-1.587 11.742-3.173 23.483-2.81 35.164 2.916 31.099 19.055 39.531 37.37 64.298 4.064 5.728 6.255 13.449 4.487 19.358-8.825 27.351-7.495 16.97-15.126 43.792" stroke="#C19B85" stroke-width="1.333" stroke-linecap="round" stroke-linejoin="round"/><path d="M51.79 170.684c0-9.051-.56-14.915-2.464-20.823-1.103-3.461-2.66-6.936-4.835-11.061-4.911-9.354-7.888-19.766-8.992-30.329-.513-4.971-.83-10.578.544-15.443.983-3.43 1.904-7.843 5.35-7.133.529.106 1.133.333 1.798.71 4.382 2.479 5.53 10.11 6.921 14.492.363 1.103.71 2.221 1.073 3.325 1.103 3.43 2.236 6.83 3.475 10.2.378 1.057.771 2.1 1.18 3.143.21.559.422 1.118.634 1.662 1.753 4.654 3.249 9.203 5.425 13.736 1.828 3.823 3.778 7.586 5.772 11.318l2.04 3.763c3.808 6.966 8.9 13.207 14.144 19.237 1.95 2.251 3.93 4.473 5.864 6.694 3.46 3.974 5.56 9.263 7.419 14.159a91.37 91.37 0 014.382 15.413c2.086 10.941 1.708 21.715.423 32.716-.438 3.778-.921 7.858-1.405 12.044-.121 1.027-.257 2.04-.378 3.083-.06.483-.105.967-.166 1.435-1.572 13.222-3.249 26.943-4.382 35.753" stroke="#C19B85" stroke-width="1.333" stroke-linecap="round" stroke-linejoin="round"/><path d="M43.084 85.85c.922-6.86 3.763-15.263 5.893-21.806 1.995-6.09 3.944-12.194 6.347-18.133l2.992-8.266a3.532 3.532 0 014.307-2.191c1.98.574 3.052 2.705 2.327 4.624-3.521 9.384-11.893 38.397-13.751 64.343" stroke="#C19B85" stroke-width="1.333" stroke-linecap="round" stroke-linejoin="round"/><path d="M63.937 42.919s5.455.725 4.336 6.301c-1.118 5.576-11.484 41.465-13.615 65.386" stroke="#C19B85" stroke-width="1.333" stroke-linecap="round" stroke-linejoin="round"/><path d="M63.075 69.877s4.337.877 3.793 6.725c-.529 5.848-6.074 33.229-8.356 46.784M190.36 288.778c-1.148-8.81-2.81-22.531-4.382-35.753-.06-.484-.121-.952-.166-1.436-.121-1.042-.257-2.07-.378-3.082-.483-4.186-.967-8.266-1.405-12.044-1.285-11.001-1.662-21.775.423-32.716a91.34 91.34 0 014.367-15.413c1.874-4.896 3.974-10.185 7.435-14.159 1.934-2.222 3.914-4.443 5.863-6.695 5.243-6.029 10.336-12.27 14.144-19.236.68-1.239 1.36-2.478 2.025-3.733.015-.015 0-.015 0-.015 2.01-3.732 3.959-7.51 5.787-11.333 2.176-4.549 3.672-9.097 5.425-13.766.197-.544.408-1.088.62-1.632.408-1.043.801-2.086 1.194-3.144 1.239-3.369 2.372-6.769 3.46-10.185.363-1.118.726-2.221 1.073-3.339 1.405-4.382 2.554-12.013 6.936-14.492.665-.377 1.254-.604 1.783-.71 3.461-.71 4.382 3.687 5.365 7.133 1.375 4.865 1.057 10.472.544 15.443-1.103 10.563-4.095 20.975-9.007 30.328-2.16 4.126-3.732 7.586-4.82 11.032-1.904 5.923-2.463 11.786-2.463 20.853" stroke="#C19B85" stroke-width="1.333" stroke-linecap="round" stroke-linejoin="round"/><path d="M243.189 288.778c-7.631-26.822-6.301-16.441-15.126-43.792-1.768-5.909.408-13.631 4.488-19.358 18.315-24.767 34.454-33.199 37.37-64.298.363-11.681-1.224-23.422-2.811-35.164-4.306-31.93-11.545-48.839-17.574-80.467-.635-3.324-2.282-8.326-4.004-11.258-2.645-4.533-7.103-6.105-6.438 4.881 1.285 21.473 4.322 24.284 5.47 46.573v.03" stroke="#C19B85" stroke-width="1.333" stroke-linecap="round" stroke-linejoin="round"/><path d="M242.888 85.85c-.922-6.86-3.762-15.263-5.893-21.806-1.995-6.09-3.944-12.195-6.347-18.133l-2.992-8.266a3.532 3.532 0 00-4.307-2.191c-1.979.574-3.052 2.705-2.327 4.624 3.521 9.384 11.893 38.397 13.751 64.343" stroke="#C19B85" stroke-width="1.333" stroke-linecap="round" stroke-linejoin="round"/><path d="M222.033 42.919s-5.455.725-4.337 6.3c1.118 5.577 11.485 41.466 13.615 65.387" stroke="#C19B85" stroke-width="1.333" stroke-linecap="round" stroke-linejoin="round"/><path d="M222.881 69.877s-4.337.876-3.793 6.724c.529 5.849 6.075 33.23 8.357 46.785" stroke="#C19B85" stroke-width="1.333" stroke-linecap="round" stroke-linejoin="round"/><path d="M229.498 119.396c-1.753 4.67-3.249 9.218-5.425 13.767a266.492 266.492 0 01-5.788 11.333 220.322 220.322 0 01-2.025 3.748c-3.808 6.966-8.9 13.207-14.144 19.236-1.949 2.252-3.929 4.473-5.863 6.695-3.46 3.974-5.561 9.263-7.435 14.159a91.434 91.434 0 00-4.367 15.413c-2.085 10.941-1.707 21.715-.423 32.716.438 3.778.922 7.858 1.406 12.044.12 1.012.256 2.04.377 3.082.046.484.106.952.167 1.436-10.533 5.984-22.244 9.822-34.65 11.001l-.408.045-.424.045c-1.072.106-2.16.197-3.248.257-.726.031-1.436.061-2.161.076h-.227c-.302.015-.62.015-.937.015-.302.015-.619.015-.937.015-.317 0-.634 0-.937-.015-.317 0-.634 0-.937-.015h-.226c-.726 0-1.451-.045-2.161-.076a75.279 75.279 0 01-3.249-.257l-.423-.045c-.136 0-.272-.03-.408-.045-12.406-1.179-24.118-5.002-34.65-11.001.06-.469.106-.952.166-1.421.121-1.057.257-2.07.378-3.097.483-4.186.967-8.266 1.405-12.044 1.285-11.001 1.662-21.775-.423-32.716a91.38 91.38 0 00-4.382-15.413c-1.859-4.896-3.96-10.185-7.42-14.159-1.934-2.222-3.914-4.443-5.863-6.695-5.243-6.029-10.336-12.27-14.144-19.236l-2.04-3.763c-1.995-3.732-3.944-7.495-5.772-11.318-2.176-4.534-3.672-9.082-5.425-13.736a107.491 107.491 0 014.639-10.306c16.199-31.431 46.799-52.617 81.872-52.617s65.674 21.185 81.873 52.617a110.878 110.878 0 014.639 10.275z" stroke="#C19B85" stroke-width="1.333" stroke-linecap="round" stroke-linejoin="round"/><path d="M140.881 264.449h.226c.303.015.62.015.937.015.302.015.62.015.937.015.317 0 .635 0 .937-.015.317 0 .634 0 .937-.015h.226m-44.545-15.943c.484-4.185.967-8.265 1.406-12.043 1.284-11.001 1.662-21.776-.423-32.716a91.412 91.412 0 00-4.383-15.413c-1.858-4.896-3.959-10.185-7.42-14.16-1.934-2.221-3.913-4.442-5.862-6.694 10.653-22.516 33.123-38.035 59.13-38.035 26.006 0 48.476 15.519 59.13 38.035-1.95 2.252-3.929 4.473-5.863 6.694-3.461 3.975-5.561 9.264-7.435 14.16a91.287 91.287 0 00-4.367 15.413c-2.086 10.94-1.708 21.715-.423 32.716.438 3.778.921 7.858 1.405 12.043" stroke="#C19B85" stroke-width="1.333" stroke-linecap="round" stroke-linejoin="round"/><path d="M151.325 264.026l-.408.045-.423.045a75.279 75.279 0 01-3.249.257c-.725.03-1.435.061-2.161.076h-.226c-.302.015-.62.015-.937.015-.302.015-.62.015-.937.015-.317 0-.635 0-.937-.015-.317 0-.635 0-.937-.015h-.226c-.726-.015-1.451-.046-2.161-.076a75.279 75.279 0 01-3.249-.257c-.136 0-.287-.03-.423-.045l-.408-.045m-34.482-12.422c.121-1.058.257-2.07.378-3.098.483-4.185.967-8.265 1.405-12.043 1.285-11.001 1.662-21.775-.423-32.716a91.327 91.327 0 00-4.382-15.413c-1.859-4.896-3.96-10.185-7.42-14.16-1.934-2.221-3.914-4.442-5.863-6.694-5.244-6.029-10.336-12.27-14.144-19.236l-2.04-3.763c12.316-31.28 41.389-53.267 75.314-53.267 33.925 0 62.999 21.987 75.299 53.282-.665 1.269-1.345 2.508-2.025 3.748-3.808 6.966-8.9 13.207-14.144 19.236-1.949 2.252-3.929 4.473-5.863 6.694-3.46 3.975-5.561 9.264-7.435 14.16a91.38 91.38 0 00-4.367 15.413c-2.085 10.941-1.707 21.715-.423 32.716.438 3.778.922 7.858 1.405 12.043.121 1.013.257 2.04.378 3.083M156.915 19.298a16.201 16.201 0 01-12.508-12.966c-.352-1.992-.807-3.859-1.385-5.332-.579 1.473-1.034 3.34-1.386 5.332-1.157 6.472-6.14 11.597-12.549 12.966a137.5 137.5 0 00-2.667.58c1.096.436 2.274.789 3.473 1.1 6.099 1.535 10.668 6.618 11.826 12.842.352 1.846.786 3.589 1.323 4.958.538-1.39.972-3.112 1.323-4.958 1.158-6.203 5.727-11.286 11.826-12.842 1.199-.311 2.378-.664 3.474-1.1 0 0-1.096-.248-2.729-.601l-.021.02zM23.289 237.777c-4.67-1.012-8.296-4.729-9.142-9.444-.257-1.451-.59-2.811-1.013-3.884-.423 1.073-.755 2.433-1.012 3.884-.846 4.715-4.488 8.447-9.173 9.444a98.697 98.697 0 00-1.949.424c.8.317 1.662.574 2.539.8 4.457 1.119 7.797 4.821 8.643 9.354.257 1.345.575 2.614.967 3.612.393-1.013.71-2.267.968-3.612.846-4.518 4.185-8.22 8.643-9.354a21.582 21.582 0 002.539-.8s-.801-.182-1.995-.439l-.015.015zm259.699 0c-4.669-1.012-8.296-4.729-9.142-9.444-.257-1.451-.589-2.811-1.012-3.884-.424 1.073-.756 2.433-1.013 3.884-.846 4.715-4.488 8.447-9.172 9.444-1.164.242-1.95.424-1.95.424.801.317 1.662.574 2.539.8 4.458 1.119 7.797 4.821 8.643 9.354.257 1.345.575 2.615.968 3.612.392-1.013.71-2.267.967-3.612.846-4.518 4.186-8.22 8.643-9.354a21.563 21.563 0 002.539-.8s-.801-.182-1.995-.439l-.015.015z" stroke="#C19B85" stroke-width="1.333" stroke-linecap="round" stroke-linejoin="round"/></svg>