<svg width="300" height="300" fill="none" xmlns="http://www.w3.org/2000/svg"><path d="M150.328 209.184c32.508 0 58.86-26.352 58.86-58.859 0-32.508-26.352-58.86-58.86-58.86-32.507 0-58.86 26.352-58.86 58.86 0 32.507 26.353 58.859 58.86 58.859zm-.004-133.006V1m0 298.65v-75.177m-74.146-74.148H1m298.67 0h-75.178M97.894 97.894L60.352 60.352m179.966 179.947l-37.543-37.543m-104.881 0l-37.542 37.543M240.318 60.352l-37.543 37.542M122.661 81.53l-19.825-49.247m95.001 236.084l-19.825-49.247m-96.48-41.11l-49.247 19.825m236.099-95.004l-49.263 19.81m-137.004-1.384l-48.848-20.809m234.117 99.755l-48.831-20.809m-97.297 39.157l-20.809 48.832m99.772-234.116l-20.809 48.848m-89.623 25.392L67.088 91.465m166.49 117.719l-22.701-16.041m-103.355 17.733l-16.057 22.686M209.199 67.088l-16.056 22.686M77.717 135.268l-27.207-5.644m199.652 41.403l-27.223-5.645m-87.668 57.552l-5.644 27.223m41.414-199.664l-5.645 27.223m-88.153 85.143l-27.391 4.707m200.971-34.483l-27.407 4.707m-60.535 85.621l4.691 27.392M133.088 49.846l4.706 27.392m-28.007 10.998l-15.195-23.27m111.492 170.719l-15.195-23.27M88.256 190.867l-23.285 15.211M235.69 94.588l-23.27 15.195" stroke="#C19B85" stroke-width="1.333" stroke-linecap="round" stroke-linejoin="round"/><path d="M112.463 150.325c0-27.946 22.655-50.6 50.6-50.6a50.337 50.337 0 0129.161 9.258c-10.674-10.812-25.5-17.518-41.88-17.518-32.514 0-58.86 26.346-58.86 58.86 0 32.513 26.346 58.859 58.86 58.859 16.395 0 31.222-6.705 41.88-17.518a50.337 50.337 0 01-29.161 9.259c-27.945 0-50.6-22.655-50.6-50.6z" stroke="#C19B85" stroke-width="1.333" stroke-linecap="round" stroke-linejoin="round"/><path d="M198.266 149.879c-4.753-1.031-8.444-4.814-9.305-9.613-.262-1.476-.6-2.86-1.031-3.952-.43 1.092-.769 2.476-1.03 3.952-.861 4.799-4.568 8.598-9.336 9.613-1.184.246-1.984.43-1.984.43.815.323 1.692.585 2.584.816 4.537 1.138 7.936 4.906 8.797 9.52.262 1.369.585 2.661.985 3.676.4-1.031.723-2.307.984-3.676.861-4.599 4.26-8.367 8.797-9.52a22.085 22.085 0 002.584-.816s-.815-.184-2.03-.446l-.015.016z" stroke="#C19B85" stroke-width="1.333" stroke-linecap="round" stroke-linejoin="round"/></svg>