<svg width="300" height="300" fill="none" xmlns="http://www.w3.org/2000/svg"><path d="M196.421 28h-92.842C87.243 28 74 41.243 74 57.579V243.23c0 16.336 13.243 29.579 29.579 29.579h92.842c16.336 0 29.579-13.243 29.579-29.579V57.579C226 41.243 212.757 28 196.421 28z" stroke="#C19B85" stroke-width="1.333" stroke-linecap="round" stroke-linejoin="round"/><path d="M155.607 144.804c-.461-8.879-1.814-26.158-5.601-35.753-3.787 9.595-5.139 26.874-5.601 35.753-8.194.414-30.899 5.601-30.899 5.601 9.594 3.786 22.021 5.139 30.899 5.6.462 8.879 1.814 26.158 5.601 35.753 3.787-9.595 5.14-26.874 5.601-35.753 8.878-.461 21.305-1.814 30.899-5.6 0 0-22.021-5.14-30.899-5.601zm-69.656 5.601h20.764m86.588 0h20.78M150.008 86.33v17.17m0 93.795v17.169m-34.18-98.236l10.741 10.741m-18.936-18.935l4.757 4.74m71.859 71.873l-10.741-10.741m18.93 18.918l-4.741-4.741m-61.129-14.257l-11.25 11.25m68.931-68.848l-10.741 10.741m18.93-18.935l-4.741 4.74m-80.064 80.05l4.757-4.741m-7.503-56.915l14.639 6.238m60.97 25.983l14.639 6.237M169.23 105.28l-6.238 14.624m-25.963 60.987l-6.238 14.639m.9-90.632l5.936 14.751m24.758 61.496l5.935 14.75m27.185-63.805l-14.767 5.936m-61.477 24.741l-14.767 5.951M118.299 59.01c-4.916-1.065-8.735-4.98-9.626-9.944-.271-1.527-.621-2.96-1.066-4.09-.446 1.13-.796 2.563-1.066 4.09-.891 4.964-4.726 8.895-9.658 9.945-1.226.254-2.053.445-2.053.445.843.334 1.75.605 2.673.843 4.694 1.178 8.21 5.076 9.101 9.85.271 1.416.605 2.752 1.019 3.802.413-1.066.748-2.386 1.018-3.802.891-4.758 4.407-8.656 9.101-9.85.923-.238 1.83-.509 2.673-.843 0 0-.843-.19-2.1-.461l-.016.016zm84.807 181.834c-4.917-1.066-8.735-4.98-9.627-9.945-.27-1.527-.62-2.959-1.066-4.089-.445 1.13-.795 2.562-1.066 4.089-.891 4.965-4.725 8.895-9.658 9.945-1.225.254-2.052.445-2.052.445.843.334 1.75.605 2.673.844 4.694 1.177 8.21 5.075 9.101 9.849.271 1.416.605 2.752 1.018 3.802.414-1.066.748-2.386 1.019-3.802.891-4.758 4.407-8.656 9.101-9.849.923-.239 1.83-.51 2.673-.844 0 0-.843-.191-2.1-.461l-.016.016z" stroke="#C19B85" stroke-width="1.333" stroke-linecap="round" stroke-linejoin="round"/></svg>