<svg width="1380" height="27" fill="none" xmlns="http://www.w3.org/2000/svg"><path d="M699.18 13.109a10.722 10.722 0 01-8.277-8.58c-.233-1.319-.534-2.554-.917-3.529-.383.975-.684 2.21-.916 3.528a10.719 10.719 0 01-8.305 8.58c-1.054.22-1.765.385-1.765.385.725.288 1.505.522 2.299.728 4.036 1.016 7.059 4.38 7.825 8.498.233 1.222.52 2.375.876 3.281.356-.92.643-2.06.876-3.281.766-4.105 3.789-7.469 7.826-8.498.793-.206 1.573-.44 2.298-.728 0 0-.725-.165-1.806-.398l-.014.014z" stroke="#C19B85" stroke-linecap="round" stroke-linejoin="round"/><path stroke="#C19B85" d="M0 13.5h679m20 0h681"/></svg>