<svg width="670" height="679" fill="none" xmlns="http://www.w3.org/2000/svg"><path d="M95.673 200.742v-.071c2.737-52.426 9.881-59.037 12.902-109.543 1.564-25.84-8.92-22.143-15.14-11.48-4.053 6.895-7.962 18.66-9.455 26.479-14.146 74.391-31.171 114.164-41.3 189.265-3.733 27.617-7.465 55.234-6.612 82.708 6.86 73.147 44.82 92.98 87.897 151.235 9.561 13.47 14.715 31.633 10.557 45.53-20.757 64.332-17.63 39.914-35.579 103.003" stroke="#C19B85" stroke-width="1.333" stroke-linecap="round" stroke-linejoin="round"/><path d="M120.133 400.101c0-21.29-1.315-35.08-5.794-48.978-2.594-8.139-6.255-16.314-11.374-26.017-11.551-22.001-18.553-46.49-21.147-71.334-1.209-11.694-1.955-24.88 1.28-36.325 2.31-8.068 4.478-18.447 12.581-16.776 1.244.249 2.666.782 4.23 1.671 10.307 5.829 13.008 23.778 16.278 34.085.853 2.595 1.671 5.225 2.524 7.819 2.595 8.069 5.26 16.066 8.175 23.992.888 2.488 1.812 4.94 2.772 7.393.498 1.315.995 2.63 1.493 3.909 4.123 10.947 7.642 21.646 12.76 32.309 4.3 8.992 8.885 17.842 13.577 26.621l4.798 8.85c8.957 16.385 20.935 31.065 33.268 45.246 4.585 5.296 9.241 10.521 13.791 15.746 8.139 9.347 13.08 21.787 17.451 33.303 4.514 11.765 7.926 23.92 10.308 36.254 4.905 25.733 4.016 51.075.995 76.95-1.031 8.885-2.168 18.482-3.306 28.327-.284 2.417-.604 4.799-.888 7.251-.142 1.137-.249 2.275-.391 3.377-3.697 31.099-7.642 63.372-10.307 84.094" stroke="#C19B85" stroke-width="1.333" stroke-linecap="round" stroke-linejoin="round"/><path d="M99.656 200.565c2.168-16.137 8.85-35.898 13.862-51.288 4.692-14.324 9.277-28.683 14.928-42.652l7.037-19.442c1.493-4.123 5.9-6.362 10.13-5.153 4.656 1.35 7.18 6.362 5.474 10.876-8.282 22.072-27.973 90.314-32.344 151.341" stroke="#C19B85" stroke-width="1.333" stroke-linecap="round" stroke-linejoin="round"/><path d="M148.702 99.585s12.831 1.706 10.201 14.822c-2.63 13.115-27.013 97.529-32.024 153.793" stroke="#C19B85" stroke-width="1.333" stroke-linecap="round" stroke-linejoin="round"/><path d="M146.677 163s10.201 2.061 8.921 15.816c-1.244 13.755-14.288 78.158-19.655 110.04m310.114 389.012c-2.702-20.721-6.611-52.994-10.308-84.094-.142-1.137-.284-2.239-.391-3.376-.284-2.453-.604-4.87-.888-7.251-1.138-9.846-2.275-19.442-3.306-28.328-3.021-25.875-3.909-51.217.995-76.95a214.913 214.913 0 0110.272-36.253c4.408-11.516 9.348-23.956 17.487-33.304 4.55-5.225 9.206-10.449 13.791-15.745 12.333-14.182 24.311-28.861 33.268-45.246 1.599-2.915 3.199-5.829 4.763-8.779.035-.036 0-.036 0-.036 4.727-8.779 9.312-17.665 13.612-26.657 5.119-10.698 8.637-21.397 12.76-32.379.462-1.28.96-2.559 1.458-3.839a458.15 458.15 0 002.807-7.393c2.915-7.926 5.581-15.923 8.14-23.956.853-2.63 1.706-5.224 2.523-7.854 3.306-10.308 6.007-28.257 16.314-34.086 1.564-.889 2.95-1.422 4.194-1.67 8.14-1.671 10.308 8.672 12.618 16.776 3.235 11.444 2.488 24.631 1.28 36.324-2.595 24.845-9.632 49.334-21.184 71.335-5.082 9.703-8.779 17.842-11.338 25.946-4.478 13.933-5.793 27.723-5.793 49.049" stroke="#C19B85" stroke-width="1.333" stroke-linecap="round" stroke-linejoin="round"/><path d="M570.313 677.868c-17.949-63.089-14.821-38.671-35.578-103.003-4.159-13.897.959-32.06 10.556-45.53 43.078-58.255 81.037-78.088 87.897-151.235.853-27.474-2.879-55.091-6.611-82.708-10.129-75.101-27.154-114.874-41.336-189.265-1.493-7.82-5.367-19.584-9.419-26.479-6.22-10.663-16.705-14.36-15.141 11.48 3.021 50.506 10.165 57.117 12.866 109.543v.071" stroke="#C19B85" stroke-width="1.333" stroke-linecap="round" stroke-linejoin="round"/><path d="M569.598 200.565c-2.168-16.137-8.85-35.898-13.862-51.288-4.691-14.324-9.276-28.683-14.928-42.652l-7.037-19.442c-1.493-4.123-5.9-6.362-10.13-5.153-4.656 1.35-7.179 6.362-5.473 10.876 8.281 22.072 27.972 90.314 32.343 151.341" stroke="#C19B85" stroke-width="1.333" stroke-linecap="round" stroke-linejoin="round"/><path d="M520.554 99.585s-12.831 1.706-10.201 14.822c2.631 13.115 27.013 97.529 32.024 153.793" stroke="#C19B85" stroke-width="1.333" stroke-linecap="round" stroke-linejoin="round"/><path d="M522.544 163s-10.201 2.061-8.921 15.816c1.244 13.755 14.288 78.158 19.655 110.04" stroke="#C19B85" stroke-width="1.333" stroke-linecap="round" stroke-linejoin="round"/><path d="M538.111 279.47c-4.123 10.983-7.642 21.681-12.76 32.379-4.301 8.993-8.886 17.878-13.613 26.657-1.564 2.986-3.163 5.9-4.763 8.815-8.957 16.385-20.934 31.064-33.268 45.246-4.585 5.296-9.241 10.52-13.79 15.745-8.14 9.348-13.08 21.788-17.487 33.304a214.82 214.82 0 00-10.272 36.253c-4.905 25.733-4.017 51.075-.995 76.95 1.03 8.886 2.168 18.483 3.305 28.328.284 2.381.604 4.798.889 7.251.106 1.137.248 2.239.391 3.376-24.774 14.075-52.319 23.103-81.5 25.875l-.959.107c-.32.036-.676.071-.996.107-2.523.248-5.082.462-7.641.604-1.706.071-3.377.142-5.083.178h-.533c-.711.035-1.457.035-2.204.035-.711.036-1.457.036-2.203.036-.747 0-1.493 0-2.204-.036-.747 0-1.493 0-2.204-.035h-.533c-1.706 0-3.412-.107-5.082-.178-2.56-.142-5.119-.356-7.642-.604-.32-.036-.675-.071-.995-.107-.32 0-.64-.071-.96-.107-29.181-2.772-56.726-11.764-81.499-25.875.142-1.102.248-2.239.39-3.341.285-2.488.605-4.869.889-7.286 1.137-9.845 2.275-19.442 3.306-28.328 3.021-25.875 3.909-51.217-.996-76.95-2.381-12.333-5.793-24.489-10.307-36.253-4.372-11.516-9.312-23.956-17.452-33.304-4.549-5.225-9.205-10.449-13.79-15.745-12.333-14.182-24.311-28.861-33.268-45.246l-4.798-8.85c-4.692-8.779-9.277-17.629-13.578-26.622-5.118-10.663-8.637-21.361-12.76-32.308 3.235-8.353 6.896-16.421 10.912-24.24 38.102-73.929 110.076-123.76 192.571-123.76 82.494 0 154.468 49.831 192.57 123.76 4.016 7.784 7.642 15.852 10.912 24.169z" stroke="#C19B85" stroke-width="1.333" stroke-linecap="round" stroke-linejoin="round"/><path d="M329.686 620.642h.533c.711.035 1.457.035 2.203.035.711.036 1.458.036 2.204.036.747 0 1.493 0 2.204-.036.747 0 1.493 0 2.204-.035h.533M234.79 583.144c1.137-9.845 2.275-19.442 3.305-28.327 3.022-25.876 3.91-51.217-.995-76.95-2.381-12.334-5.793-24.489-10.307-36.254-4.372-11.516-9.312-23.956-17.452-33.304-4.549-5.224-9.205-10.449-13.79-15.745 25.057-52.959 77.909-89.461 139.078-89.461s114.021 36.502 139.079 89.461c-4.585 5.296-9.241 10.521-13.79 15.745-8.14 9.348-13.08 21.788-17.488 33.304a214.828 214.828 0 00-10.271 36.254c-4.905 25.733-4.017 51.074-.996 76.95 1.031 8.885 2.169 18.482 3.306 28.327" stroke="#C19B85" stroke-width="1.333" stroke-linecap="round" stroke-linejoin="round"/><path d="M354.247 619.651l-.96.107c-.319.035-.675.071-.995.106-2.523.249-5.082.462-7.642.604-1.706.071-3.376.143-5.082.178h-.533c-.711.036-1.458.036-2.204.036-.711.035-1.457.035-2.204.035-.746 0-1.492 0-2.203-.035-.747 0-1.493 0-2.204-.036h-.533a231.78 231.78 0 01-5.083-.178 178.855 178.855 0 01-7.641-.604c-.32 0-.676-.071-.995-.106l-.96-.107m-81.109-29.219c.285-2.488.605-4.87.889-7.287 1.137-9.845 2.275-19.442 3.305-28.327 3.022-25.875 3.91-51.217-.995-76.95-2.381-12.334-5.793-24.489-10.307-36.254-4.372-11.516-9.312-23.956-17.452-33.303-4.549-5.225-9.205-10.45-13.79-15.746-12.334-14.181-24.312-28.86-33.268-45.246l-4.799-8.85c28.968-73.573 97.352-125.288 177.145-125.288 79.794 0 148.178 51.715 177.11 125.324-1.564 2.985-3.163 5.9-4.763 8.814-8.957 16.386-20.935 31.065-33.268 45.246-4.585 5.296-9.241 10.521-13.79 15.746-8.14 9.347-13.08 21.787-17.487 33.303a214.738 214.738 0 00-10.272 36.254c-4.905 25.733-4.017 51.075-.996 76.95 1.031 8.885 2.169 18.482 3.306 28.327.284 2.382.604 4.799.889 7.251M367.4 44.029c-15.026-3.27-26.697-15.273-29.42-30.497-.826-4.685-1.896-9.076-3.258-12.54-1.361 3.464-2.431 7.855-3.258 12.54-2.723 15.224-14.442 27.276-29.517 30.497-3.744.78-6.273 1.366-6.273 1.366 2.577 1.025 5.349 1.854 8.169 2.586 14.346 3.611 25.093 15.566 27.816 30.205.826 4.343 1.847 8.441 3.112 11.662 1.264-3.27 2.285-7.32 3.112-11.662 2.723-14.59 13.47-26.545 27.815-30.205 2.821-.732 5.593-1.561 8.17-2.586 0 0-2.578-.585-6.419-1.415l-.049.049zM53.093 557.907c-10.982-2.381-19.512-11.125-21.503-22.214-.604-3.412-1.386-6.611-2.381-9.134-.995 2.523-1.777 5.722-2.382 9.134-1.99 11.089-10.556 19.868-21.574 22.214-2.737.569-4.585.995-4.585.995 1.884.747 3.91 1.351 5.971 1.884 10.485 2.63 18.34 11.338 20.33 22.001.605 3.163 1.351 6.149 2.275 8.495.925-2.381 1.67-5.332 2.275-8.495 1.99-10.627 9.845-19.335 20.33-22.001 2.062-.533 4.088-1.137 5.972-1.884 0 0-1.884-.426-4.692-1.03l-.035.035zm610.842 0c-10.982-2.381-19.513-11.125-21.503-22.214-.604-3.412-1.386-6.611-2.381-9.134-.996 2.523-1.778 5.722-2.382 9.134-1.99 11.089-10.556 19.868-21.574 22.214-2.737.569-4.585.995-4.585.995 1.884.747 3.909 1.351 5.971 1.884 10.485 2.63 18.34 11.338 20.33 22.001.605 3.163 1.351 6.149 2.275 8.495.924-2.381 1.671-5.332 2.275-8.495 1.99-10.627 9.845-19.335 20.33-22.001 2.062-.533 4.088-1.137 5.971-1.884 0 0-1.883-.426-4.691-1.03l-.036.035z" stroke="#C19B85" stroke-width="1.333" stroke-linecap="round" stroke-linejoin="round"/></svg>