<svg width="286" height="290" fill="none" xmlns="http://www.w3.org/2000/svg"><path d="M41.728 85.59v-.03c1.163-22.29 4.2-25.1 5.485-46.573.665-10.986-3.793-9.415-6.437-4.881-1.723 2.931-3.385 7.933-4.02 11.258C30.742 76.99 23.504 93.9 19.196 125.83c-1.586 11.741-3.172 23.483-2.81 35.164 2.917 31.098 19.055 39.53 37.37 64.298 4.065 5.727 6.256 13.449 4.488 19.357-8.825 27.351-7.495 16.97-15.126 43.792" stroke="#C19B85" stroke-width="1.333" stroke-linecap="round" stroke-linejoin="round"/><path d="M52.125 170.348c0-9.051-.559-14.914-2.463-20.823-1.103-3.46-2.66-6.936-4.835-11.061-4.912-9.354-7.889-19.766-8.992-30.328-.513-4.972-.83-10.578.544-15.444.983-3.43 1.904-7.843 5.35-7.132.529.105 1.133.332 1.798.71 4.382 2.478 5.53 10.11 6.92 14.491.364 1.104.711 2.222 1.074 3.325 1.103 3.43 2.236 6.83 3.475 10.2.378 1.058.771 2.1 1.18 3.143.21.559.422 1.118.634 1.662 1.753 4.655 3.249 9.203 5.425 13.736 1.828 3.824 3.778 7.586 5.772 11.319l2.04 3.762c3.808 6.967 8.9 13.208 14.144 19.237 1.95 2.251 3.93 4.473 5.863 6.694 3.46 3.974 5.561 9.263 7.42 14.159a91.363 91.363 0 014.382 15.414c2.086 10.94 1.708 21.715.423 32.716-.438 3.777-.921 7.857-1.405 12.043-.121 1.028-.257 2.04-.378 3.083-.06.483-.106.967-.166 1.435-1.572 13.223-3.249 26.944-4.382 35.754" stroke="#C19B85" stroke-width="1.333" stroke-linecap="round" stroke-linejoin="round"/><path d="M43.42 85.514c.922-6.86 3.763-15.262 5.893-21.805 1.995-6.09 3.944-12.195 6.347-18.134l2.992-8.266a3.532 3.532 0 014.307-2.19c1.98.573 3.052 2.704 2.327 4.623-3.521 9.384-11.893 38.398-13.751 64.344" stroke="#C19B85" stroke-width="1.333" stroke-linecap="round" stroke-linejoin="round"/><path d="M64.272 42.583s5.456.725 4.337 6.301c-1.118 5.576-11.484 41.466-13.615 65.387" stroke="#C19B85" stroke-width="1.333" stroke-linecap="round" stroke-linejoin="round"/><path d="M63.411 69.541s4.337.877 3.793 6.725c-.529 5.848-6.075 33.229-8.356 46.784m131.848 165.392c-1.148-8.809-2.81-22.53-4.382-35.753-.06-.483-.121-.952-.166-1.435-.121-1.043-.257-2.071-.378-3.083-.484-4.186-.967-8.266-1.405-12.044-1.285-11.001-1.663-21.775.423-32.715a91.325 91.325 0 014.367-15.414c1.874-4.896 3.974-10.185 7.435-14.159 1.934-2.221 3.913-4.443 5.863-6.694 5.243-6.03 10.336-12.271 14.144-19.237.68-1.239 1.36-2.478 2.025-3.732.015-.015 0-.015 0-.015 2.01-3.733 3.959-7.511 5.787-11.334 2.176-4.548 3.672-9.097 5.425-13.766.197-.544.408-1.088.62-1.632.408-1.043.801-2.085 1.194-3.143 1.239-3.37 2.372-6.77 3.46-10.185.363-1.118.725-2.222 1.073-3.34 1.405-4.382 2.554-12.013 6.936-14.491.665-.378 1.254-.605 1.783-.71 3.461-.71 4.382 3.686 5.365 7.132 1.375 4.866 1.057 10.472.544 15.443-1.103 10.563-4.095 20.975-9.007 30.329-2.161 4.125-3.732 7.585-4.82 11.031-1.904 5.923-2.463 11.787-2.463 20.853" stroke="#C19B85" stroke-width="1.333" stroke-linecap="round" stroke-linejoin="round"/><path d="M243.525 288.442c-7.631-26.822-6.301-16.441-15.126-43.792-1.768-5.908.408-13.63 4.488-19.357 18.315-24.768 34.454-33.2 37.37-64.299.363-11.681-1.224-23.422-2.811-35.163-4.306-31.93-11.545-48.84-17.574-80.468-.635-3.324-2.282-8.326-4.005-11.257-2.644-4.534-7.102-6.105-6.437 4.88 1.285 21.474 4.322 24.284 5.47 46.573v.03" stroke="#C19B85" stroke-width="1.333" stroke-linecap="round" stroke-linejoin="round"/><path d="M243.224 85.514c-.922-6.86-3.763-15.263-5.893-21.806-1.995-6.09-3.944-12.194-6.347-18.133l-2.992-8.266a3.532 3.532 0 00-4.307-2.191c-1.979.574-3.052 2.705-2.327 4.624 3.521 9.384 11.893 38.398 13.751 64.344" stroke="#C19B85" stroke-width="1.333" stroke-linecap="round" stroke-linejoin="round"/><path d="M222.369 42.583s-5.455.725-4.337 6.301c1.118 5.576 11.484 41.465 13.615 65.386" stroke="#C19B85" stroke-width="1.333" stroke-linecap="round" stroke-linejoin="round"/><path d="M223.217 69.541s-4.337.877-3.793 6.725c.529 5.848 6.075 33.229 8.357 46.784" stroke="#C19B85" stroke-width="1.333" stroke-linecap="round" stroke-linejoin="round"/><path d="M229.834 119.061c-1.753 4.669-3.249 9.218-5.425 13.766a266.492 266.492 0 01-5.788 11.333 216.572 216.572 0 01-2.025 3.748c-3.808 6.966-8.9 13.207-14.144 19.237-1.949 2.251-3.929 4.472-5.863 6.694-3.46 3.974-5.561 9.263-7.435 14.159a91.434 91.434 0 00-4.367 15.413c-2.085 10.941-1.707 21.715-.423 32.716.438 3.778.922 7.858 1.406 12.044.12 1.012.256 2.04.377 3.083.046.483.106.952.167 1.435-10.533 5.984-22.244 9.822-34.65 11.001l-.408.045c-.136.016-.288.031-.424.046-1.073.106-2.16.196-3.249.257-.725.03-1.435.06-2.16.075h-.227c-.302.015-.62.015-.937.015-.302.015-.619.015-.937.015-.317 0-.635 0-.937-.015-.317 0-.634 0-.937-.015h-.226c-.726 0-1.451-.045-2.161-.075a76.908 76.908 0 01-3.249-.257c-.136-.015-.287-.03-.423-.046-.136 0-.272-.03-.408-.045-12.407-1.179-24.118-5.002-34.65-11.001.06-.468.106-.952.166-1.42.121-1.058.257-2.071.378-3.098.483-4.186.967-8.266 1.405-12.044 1.285-11.001 1.662-21.775-.423-32.716a91.37 91.37 0 00-4.382-15.413c-1.859-4.896-3.96-10.185-7.42-14.159-1.934-2.222-3.914-4.443-5.863-6.694-5.244-6.03-10.336-12.271-14.144-19.237l-2.04-3.763c-1.995-3.732-3.944-7.495-5.772-11.318-2.177-4.533-3.673-9.082-5.425-13.736a107.628 107.628 0 014.639-10.306c16.199-31.431 46.799-52.617 81.872-52.617s65.673 21.186 81.873 52.617a110.897 110.897 0 014.639 10.276z" stroke="#C19B85" stroke-width="1.333" stroke-linecap="round" stroke-linejoin="round"/><path d="M141.217 264.113h.226c.303.015.62.015.937.015.302.015.62.015.937.015.317 0 .635 0 .937-.015.317 0 .634 0 .937-.015h.226m-44.545-15.942c.484-4.186.967-8.266 1.406-12.044 1.284-11.001 1.662-21.775-.424-32.716a91.378 91.378 0 00-4.382-15.413c-1.858-4.896-3.959-10.185-7.42-14.159-1.934-2.222-3.913-4.443-5.863-6.695 10.654-22.515 33.124-38.035 59.131-38.035 26.006 0 48.476 15.52 59.13 38.035-1.95 2.252-3.929 4.473-5.863 6.695-3.461 3.974-5.561 9.263-7.435 14.159a91.34 91.34 0 00-4.367 15.413c-2.086 10.941-1.708 21.715-.423 32.716.438 3.778.921 7.858 1.405 12.044" stroke="#C19B85" stroke-width="1.333" stroke-linecap="round" stroke-linejoin="round"/><path d="M151.661 263.69l-.408.045c-.136.016-.287.031-.423.046a76.908 76.908 0 01-3.249.257c-.725.03-1.435.06-2.161.075h-.226c-.303.015-.62.015-.937.015-.302.015-.62.015-.937.015-.317 0-.635 0-.937-.015-.317 0-.635 0-.937-.015h-.227c-.725-.015-1.45-.045-2.16-.075a76.908 76.908 0 01-3.249-.257c-.136 0-.287-.03-.423-.046l-.408-.045m-34.482-12.422c.121-1.057.257-2.07.378-3.097.483-4.186.967-8.266 1.405-12.044 1.285-11.001 1.662-21.775-.423-32.716a91.473 91.473 0 00-4.382-15.413c-1.859-4.896-3.96-10.185-7.42-14.159-1.934-2.222-3.914-4.443-5.863-6.695-5.244-6.029-10.336-12.27-14.144-19.236l-2.04-3.763c12.315-31.28 41.389-53.267 75.314-53.267 33.925 0 62.999 21.987 75.299 53.282a216.572 216.572 0 01-2.025 3.748c-3.808 6.966-8.9 13.207-14.144 19.236-1.949 2.252-3.929 4.473-5.863 6.695-3.46 3.974-5.561 9.263-7.435 14.159a91.434 91.434 0 00-4.367 15.413c-2.085 10.941-1.707 21.715-.423 32.716.438 3.778.922 7.858 1.405 12.044.121 1.012.257 2.04.378 3.082M157.251 18.962c-6.389-1.39-11.351-6.493-12.508-12.966-.352-1.992-.807-3.859-1.385-5.332-.579 1.473-1.034 3.34-1.386 5.332-1.157 6.473-6.14 11.597-12.549 12.966a137.5 137.5 0 00-2.667.58c1.096.437 2.274.79 3.473 1.1 6.099 1.536 10.668 6.618 11.826 12.842.352 1.846.786 3.59 1.323 4.958.538-1.39.972-3.112 1.323-4.958 1.158-6.203 5.727-11.286 11.826-12.842 1.199-.31 2.378-.663 3.474-1.1 0 0-1.096-.248-2.73-.6l-.02.02zM23.625 237.442c-4.67-1.013-8.296-4.73-9.142-9.445-.257-1.45-.59-2.81-1.013-3.883-.423 1.073-.755 2.433-1.012 3.883-.846 4.715-4.488 8.447-9.173 9.445-1.163.241-1.95.423-1.95.423a21.83 21.83 0 002.54.801c4.457 1.118 7.797 4.82 8.643 9.354.257 1.344.574 2.614.967 3.611.393-1.012.71-2.267.968-3.611.846-4.519 4.185-8.221 8.643-9.354a21.779 21.779 0 002.539-.801s-.801-.181-1.995-.438l-.015.015zm259.699 0c-4.669-1.013-8.296-4.73-9.142-9.445-.257-1.45-.589-2.81-1.013-3.883-.423 1.073-.755 2.433-1.012 3.883-.846 4.715-4.488 8.447-9.173 9.445-1.163.242-1.949.423-1.949.423.801.317 1.662.574 2.539.801 4.458 1.118 7.797 4.82 8.643 9.354.257 1.345.575 2.614.968 3.611.392-1.012.71-2.266.967-3.611.846-4.519 4.185-8.221 8.643-9.354a21.754 21.754 0 002.539-.801s-.801-.181-1.995-.438l-.015.015z" stroke="#C19B85" stroke-width="1.333" stroke-linecap="round" stroke-linejoin="round"/></svg>