<svg width="702" height="855" fill="none" xmlns="http://www.w3.org/2000/svg"><path d="M618.983 139.767L360.53 34.266c-45.477-18.564-97.391 3.253-115.955 48.73L33.609 599.813c-18.564 45.476 3.253 97.39 48.73 115.954l258.453 105.501c45.476 18.564 97.391-3.253 115.954-48.729L667.713 255.72c18.563-45.476-3.254-97.391-48.73-115.954z" stroke="#C19B85" stroke-width="1.333" stroke-linecap="round" stroke-linejoin="round"/><path d="M372.63 418.549c8.805-25.24 24.675-74.88 25.036-105.892-21.444 22.406-44.845 68.972-56.219 93.163-23.281-8.16-92.382-19.521-92.382-19.521 22.406 21.445 55.462 39.331 79.653 50.704-8.804 25.24-24.675 74.88-25.036 105.893 21.445-22.406 44.846-68.972 56.219-93.164 25.241 8.805 61.371 19.161 92.383 19.522 0 0-55.462-39.331-79.654-50.705zm-200.275-63.566l57.804 23.596m241.048 98.396l57.848 23.613M423.49 249.405l-19.509 47.793M297.395 558.311l-19.51 47.792M294.377 293.8l17.694 42.103m-31.196-74.228l7.856 18.607m118.357 281.725l-17.693-42.103m31.21 74.184l-7.812-18.589M258.82 466.346l-44.099 18.532m270.117-113.332l-42.103 17.694m74.223-31.194l-18.589 7.812M184.522 497.717l18.633-7.794m43.767-166.976l33.662 33.998m140.211 141.617l33.662 33.998m1.004-208.558l-33.98 33.618m-141.59 140.27l-33.998 33.662m105.513-251.265l-.239 47.805m-.962 199.328l-.239 47.804m148.197-146.72l-47.849-.258m-199.262-.986l-47.867-.213m163.076-289.729c-12.475-8.555-18.658-23.791-15.497-38.623.983-4.56 1.635-8.944 1.679-12.595-2.524 2.639-5.126 6.228-7.615 10.172-8.121 12.808-23.262 19.391-38.186 16.709-3.7-.684-6.221-1.092-6.221-1.092 1.968 1.888 4.186 3.672 6.484 5.385 11.728 8.611 17.087 23.459 14.144 37.76-.857 4.249-1.445 8.35-1.487 11.743 2.363-2.497 4.794-5.794 7.156-9.429 7.887-12.231 22.106-19.087 36.528-17.075 2.84.384 5.673.662 8.4.69 0 0-2.131-1.49-5.323-3.671l-.062.026zm29.459 602.558c-12.475-8.555-18.658-23.79-15.497-38.623.983-4.559 1.635-8.943 1.679-12.594-2.524 2.638-5.126 6.227-7.615 10.172-8.121 12.807-23.262 19.39-38.186 16.708-3.7-.683-6.221-1.092-6.221-1.092 1.968 1.888 4.186 3.672 6.483 5.385 11.729 8.612 17.088 23.459 14.145 37.76-.857 4.25-1.445 8.35-1.487 11.743 2.363-2.497 4.794-5.794 7.156-9.429 7.887-12.231 22.105-19.087 36.528-17.075 2.84.384 5.672.662 8.4.69 0 0-2.131-1.49-5.323-3.671l-.062.026z" stroke="#C19B85" stroke-width="1.333" stroke-linecap="round" stroke-linejoin="round"/></svg>