<svg width="300" height="301" fill="none" xmlns="http://www.w3.org/2000/svg"><path d="M149.99 209.183c32.508 0 58.86-26.353 58.86-58.86s-26.352-58.86-58.86-58.86c-32.507 0-58.86 26.353-58.86 58.86s26.353 58.86 58.86 58.86zm-.004-133.007V.998m0 298.651v-75.178M75.84 150.323H.662m298.67 0h-75.178M97.556 97.893L60.014 60.35M239.98 240.297l-37.542-37.543m-104.882 0l-37.542 37.543M239.98 60.35l-37.542 37.543m-80.115-16.365l-19.825-49.247m95.001 236.085l-19.825-49.247m-96.48-41.111l-49.247 19.825m236.099-95.003l-49.263 19.809m-137.004-1.384l-48.847-20.809m234.117 99.755l-48.832-20.809m-97.296 39.158l-20.81 48.831m99.772-234.115l-20.809 48.847m-89.623 25.392L66.75 91.464m166.49 117.719l-22.701-16.042m-103.355 17.733L91.127 233.56M208.861 67.086l-16.056 22.686M77.38 135.266l-27.208-5.644m199.652 41.403l-27.222-5.644m-87.668 57.552l-5.645 27.222m41.414-199.663l-5.644 27.222m-88.153 85.144l-27.392 4.706m200.971-34.482l-27.407 4.706m-60.535 85.621l4.691 27.392M132.75 49.845l4.706 27.392m-28.007 10.997l-15.195-23.27m111.492 170.719l-15.195-23.27M87.918 190.865l-23.285 15.211m170.719-111.49l-23.27 15.196" stroke="#C19B85" stroke-width="1.333" stroke-linecap="round" stroke-linejoin="round"/><path d="M112.125 150.323c0-27.946 22.655-50.6 50.6-50.6a50.336 50.336 0 0129.161 9.258c-10.674-10.812-25.5-17.518-41.88-17.518-32.513 0-58.86 26.346-58.86 58.86 0 32.513 26.347 58.86 58.86 58.86 16.395 0 31.222-6.706 41.88-17.518a50.336 50.336 0 01-29.161 9.258c-27.945 0-50.6-22.654-50.6-50.6z" stroke="#C19B85" stroke-width="1.333" stroke-linecap="round" stroke-linejoin="round"/><path d="M197.928 149.877c-4.753-1.03-8.444-4.814-9.305-9.612-.262-1.477-.6-2.861-1.031-3.953-.43 1.092-.769 2.476-1.03 3.953-.861 4.798-4.568 8.597-9.336 9.612-1.184.246-1.984.431-1.984.431.815.323 1.692.584 2.584.815 4.537 1.138 7.936 4.906 8.797 9.52.262 1.369.585 2.661.985 3.676.4-1.03.723-2.307.984-3.676.861-4.599 4.26-8.367 8.798-9.52a22.066 22.066 0 002.583-.815s-.815-.185-2.03-.446l-.015.015z" stroke="#C19B85" stroke-width="1.333" stroke-linecap="round" stroke-linejoin="round"/></svg>