<svg width="31" height="36" fill="none" xmlns="http://www.w3.org/2000/svg"><path d="M27.909 17.477a14.295 14.295 0 01-11.036-11.44c-.31-1.758-.712-3.405-1.223-4.705-.51 1.3-.912 2.947-1.222 4.704a14.29 14.29 0 01-11.073 11.44c-1.404.294-2.353.514-2.353.514.967.384 2.007.695 3.065.97 5.381 1.354 9.413 5.839 10.434 11.33.31 1.63.693 3.167 1.168 4.375.474-1.226.857-2.745 1.167-4.375 1.022-5.473 5.053-9.957 10.435-11.33 1.058-.275 2.097-.586 3.064-.97 0 0-.967-.22-2.408-.531l-.018.018z" stroke="#fff" stroke-width="1.333" stroke-linecap="round" stroke-linejoin="round"/></svg>