<svg width="31" height="36" fill="none" xmlns="http://www.w3.org/2000/svg"><path d="M27.905 17.477A14.295 14.295 0 0116.87 6.037c-.31-1.758-.712-3.406-1.223-4.705-.51 1.3-.912 2.947-1.222 4.704a14.29 14.29 0 01-11.073 11.44c-1.404.294-2.353.513-2.353.513.967.385 2.007.696 3.065.97 5.381 1.355 9.413 5.84 10.434 11.331.31 1.63.693 3.167 1.168 4.375.474-1.226.857-2.746 1.167-4.375 1.022-5.473 5.053-9.958 10.435-11.33 1.058-.275 2.098-.586 3.064-.97 0 0-.966-.22-2.408-.532l-.018.019z" stroke="#C19B85" stroke-width="1.333" stroke-linecap="round" stroke-linejoin="round"/></svg>